<svg width="36" height="36" viewBox="0 0 36 36" fill="none" xmlns="http://www.w3.org/2000/svg">
<path fill-rule="evenodd" clip-rule="evenodd" d="M36 18C36 27.9411 27.9411 36 18 36C8.05887 36 0 27.9411 0 18C0 8.05887 8.05887 0 18 0C27.9411 0 36 8.05887 36 18ZM24.8483 11.1515C25.317 11.6201 25.317 12.3799 24.8483 12.8486L19.6971 17.9999L24.8487 23.1515C25.3174 23.6202 25.3174 24.3799 24.8487 24.8486C24.3801 25.3172 23.6203 25.3172 23.1517 24.8486L18 19.6969L12.8483 24.8486C12.3797 25.3172 11.6199 25.3172 11.1513 24.8486C10.6826 24.3799 10.6826 23.6202 11.1513 23.1515L16.3029 17.9999L11.1517 12.8486C10.683 12.3799 10.683 11.6201 11.1517 11.1515C11.6203 10.6829 12.3801 10.6829 12.8487 11.1515L18 16.3028L23.1513 11.1515C23.6199 10.6829 24.3797 10.6829 24.8483 11.1515Z" fill="#CED3DB"/>
</svg>
