<svg width="20" height="20" viewBox="0 0 20 20" fill="none" xmlns="http://www.w3.org/2000/svg">
<path fill-rule="evenodd" clip-rule="evenodd" d="M9.9999 1C10.3313 1 10.5999 1.26863 10.5999 1.6V12.1515L14.0756 8.67574C14.31 8.44142 14.6899 8.44142 14.9242 8.67574C15.1585 8.91005 15.1585 9.28995 14.9242 9.52426L10.4242 14.0243C10.1899 14.2586 9.80995 14.2586 9.57564 14.0243L5.07564 9.52426C4.84132 9.28995 4.84132 8.91005 5.07564 8.67574C5.30995 8.44142 5.68985 8.44142 5.92417 8.67574L9.3999 12.1515V1.6C9.3999 1.26863 9.66853 1 9.9999 1ZM1.9999 12.5C2.33127 12.5 2.5999 12.7686 2.5999 13.1V17H17.3999V13.1C17.3999 12.7686 17.6685 12.5 17.9999 12.5C18.3313 12.5 18.5999 12.7686 18.5999 13.1V17.6C18.5999 17.9314 18.3313 18.2 17.9999 18.2H1.9999C1.66853 18.2 1.3999 17.9314 1.3999 17.6V13.1C1.3999 12.7686 1.66853 12.5 1.9999 12.5Z" fill="#CED3DB"/>
</svg>
