<svg width="20" height="20" viewBox="0 0 20 20" fill="none" xmlns="http://www.w3.org/2000/svg">
<path fill-rule="evenodd" clip-rule="evenodd" d="M1.85002 7.08333C1.85002 6.75196 1.5814 6.48333 1.25002 6.48333C0.918654 6.48333 0.650024 6.75196 0.650024 7.08333C0.650024 7.64382 0.883753 8.34652 1.27095 9.05177C1.45876 9.39385 1.68954 9.74918 1.96306 10.1051L0.82576 11.2424C0.591446 11.4767 0.591446 11.8566 0.82576 12.0909C1.06007 12.3252 1.43997 12.3252 1.67429 12.0909L2.75603 11.0092C2.84434 11.0979 2.93542 11.1859 3.02925 11.273C3.63973 11.8399 4.36927 12.3714 5.2168 12.8081L4.46337 14.315C4.31517 14.6114 4.43531 14.9718 4.7317 15.12C5.02808 15.2682 5.38849 15.148 5.53668 14.8517L6.31628 13.2925C7.23351 13.6317 8.26174 13.8584 9.40002 13.9178V15.4167C9.40002 15.748 9.66865 16.0167 10 16.0167C10.3314 16.0167 10.6 15.748 10.6 15.4167V13.9178C11.7383 13.8584 12.7665 13.6317 13.6838 13.2925L14.4634 14.8517C14.6116 15.148 14.972 15.2682 15.2684 15.12C15.5647 14.9718 15.6849 14.6114 15.5367 14.315L14.7833 12.8081C15.6308 12.3714 16.3603 11.8399 16.9708 11.273C17.0646 11.1859 17.1557 11.0979 17.244 11.0092L18.3258 12.0909C18.5601 12.3252 18.94 12.3252 19.1743 12.0909C19.4086 11.8566 19.4086 11.4767 19.1743 11.2424L18.037 10.1051C18.3105 9.7492 18.5413 9.39386 18.7291 9.05178C19.1164 8.34653 19.3501 7.64385 19.3501 7.08337C19.3502 6.752 19.0816 6.48335 18.7502 6.48333C18.4188 6.48331 18.1502 6.75191 18.1501 7.08329C18.1501 7.35614 18.0192 7.85138 17.6773 8.47425C17.344 9.0813 16.837 9.75968 16.1543 10.3937C14.7936 11.6571 12.748 12.7333 10 12.7333C7.25205 12.7333 5.20646 11.6571 3.8458 10.3937C3.16306 9.75968 2.65613 9.08131 2.32285 8.47426C1.98088 7.85139 1.85002 7.35617 1.85002 7.08333Z" fill="#CED3DB"/>
</svg>
