<svg width="20" height="20" viewBox="0 0 20 20" fill="none" xmlns="http://www.w3.org/2000/svg">
<path fill-rule="evenodd" clip-rule="evenodd" d="M1.83334 9.99999C1.83334 9.84457 1.93922 9.40343 2.31257 8.75307C2.66549 8.1383 3.2016 7.43527 3.91148 6.77271C5.32861 5.45003 7.38622 4.33333 9.99981 4.33333C12.6134 4.33333 14.6712 5.45004 16.0884 6.77274C16.7983 7.4353 17.3345 8.13833 17.6875 8.7531C18.0608 9.40347 18.1667 9.84456 18.1667 9.99992C18.1667 10.1554 18.0608 10.5965 17.6874 11.2469C17.3344 11.8617 16.7983 12.5647 16.0884 13.2273C14.6712 14.5499 12.6135 15.6667 9.99981 15.6667C7.38611 15.6667 5.3285 14.55 3.91141 13.2273C3.20155 12.5647 2.66546 11.8617 2.31255 11.2469C1.93922 10.5966 1.83334 10.1554 1.83334 9.99999ZM9.99981 3.33333C4.16668 3.33333 0.833344 8.33333 0.833344 9.99999C0.833344 11.6667 4.16647 16.6667 9.99981 16.6667C15.8331 16.6667 19.1666 11.6667 19.1667 9.99999C19.1668 8.33333 15.8329 3.33333 9.99981 3.33333ZM12.3333 10C12.3333 11.2887 11.2887 12.3333 10 12.3333C8.71135 12.3333 7.66668 11.2887 7.66668 10C7.66668 8.71133 8.71135 7.66666 10 7.66666C11.2887 7.66666 12.3333 8.71133 12.3333 10ZM13.3333 10C13.3333 11.8409 11.841 13.3333 10 13.3333C8.15906 13.3333 6.66668 11.8409 6.66668 10C6.66668 8.15905 8.15906 6.66666 10 6.66666C11.841 6.66666 13.3333 8.15905 13.3333 10Z" fill="#CED3DB"/>
</svg>
